<?xml version="1.0" encoding="utf-8"?>
<!-- Generator: Adobe Illustrator 25.2.0, SVG Export Plug-In . SVG Version: 6.00 Build 0)  -->
<svg version="1.1" id="Layer_1" xmlns="http://www.w3.org/2000/svg" x="0px" y="0px"
	 width="176.4px" height="59.3px" viewBox="0 0 176.4 59.3">
<g>
	<path d="M3.3,27.7V10.9L7.4,15v11.6l-2.6,2.6L3.3,27.7z M7.4,33.3V45l-4.1,4.1V32.3l1.5-1.6L7.4,33.3z M21.8,28l2.1,2l-2.1,2H7.6
		l-2-2l2-2H21.8z M22,26.7V15l4.1-4.1v16.8l-1.5,1.5L22,26.7z M26.1,32.3v16.7L22,45V33.3l2.6-2.6L26.1,32.3z"/>
	<path d="M36.8,26.7l-2.6,2.6l-1.5-1.5V15.8l2-2.1l2.1,2.1V26.7z M36.8,44.2l-2.1,2.1l-2-2.1V32.3l1.5-1.6l2.6,2.6V44.2z M54.8,11
		l-4,4.1H37.5l-2-2.1l2-2H54.8z M50.7,49.1l2-2l-2-2.1H37.5l-2,2.1l2,2H50.7z M53.3,30l-2.1,2h-4.6l-2-2l2-2h4.6L53.3,30z
		 M55.5,44.2l-2,2.1l-2-2.1V33.3l2.6-2.6l1.5,1.6V44.2z"/>
	<path d="M62.1,27.7v-16l4.1,4.1v10.9l-2.6,2.6L62.1,27.7z M66.2,33.3v10.9l-4.1,4.1v-16l1.5-1.6L66.2,33.3z M84.9,11l-4,4.1h-14
		l-4-4.1H84.9z M80.6,27.9l2.1,2l-2.1,2H66.4l-2-2l2-2H80.6z"/>
	<path d="M113.6,11l-4,4.1H96.3l-4-4.1H113.6z M110.2,26.7V15.8l4.1-4.1v16l-1.5,1.5L110.2,26.7z M114.3,32.3v16l-4.1-4.1V33.3
		l2.6-2.6L114.3,32.3z"/>
	<path d="M143,11l-4,4.1h-13.3l-4-4.1H143z M139.6,26.7V15.8l4.1-4.1v16l-1.5,1.5L139.6,26.7z M143.7,32.3v16l-4.1-4.1V33.3l2.6-2.6
		L143.7,32.3z"/>
	<path d="M172.4,11l-4,4.1h-13.3l-4-4.1H172.4z M169,26.7V15.8l4.1-4.1v16l-1.5,1.5L169,26.7z M173.1,32.3v16l-4.1-4.1V33.3l2.6-2.6
		L173.1,32.3z"/>
</g>
</svg>
